<svg xmlns="http://www.w3.org/2000/svg" viewBox="0 0 10800 10800"><path fill="#800d50" d="M4145 10560c-240-35-421-74-640-136a8713 8713 0 0 1-1274-476c-195-94-174-75-510-429-146-154-242-232-580-473-254-179-398-306-459-403-58-92-94-219-138-480-63-383-79-437-300-1018-91-239-99-288-123-817-20-407-24-449-66-561-12-32-31-130-43-218-35-272 8-723 89-932 147-382 487-773 1789-2065 867-861 1316-1284 1491-1409 349-246 1333-716 1721-821 255-68 670-106 1172-107 418 0 471 7 552 74 42 36 44 40 48 148 5 141-18 193-105 237-91 48-221 35-576-56-461-119-644-138-910-95-633 103-1469 453-1969 828-225 167-570 524-978 1009-386 460-574 667-995 1102-401 414-515 557-630 786-135 271-162 527-100 966 40 280 40 570 1 880-35 271-39 549-9 676 28 116 110 278 206 407 43 58 320 349 615 649 680 691 669 678 866 986 107 167 289 344 429 418 226 119 385 156 1084 258a39015 39015 0 0 1 1122 181c598 102 1093 84 1400-47 231-100 833-639 833-746 0-24-307-21-603 4-150 14-471 23-893 28l-660 7-154-96c-348-217-600-351-792-419-52-19-185-54-294-77-292-61-334-84-662-367a3498 3498 0 0 0-501-377c-77-49-175-118-215-156-244-222-468-696-568-1198-68-338-75-414-75-814 1-394 12-500 75-750 40-158 88-235 269-435 305-342 391-458 489-669 175-377 195-405 368-496 142-75 457-283 798-525 434-311 632-436 920-582 261-131 450-199 709-254 146-32 198-36 533-41 680-13 999 41 1410 237 155 72 322 168 796 458 322 195 533 316 1038 593 410 223 501 301 691 576 130 190 188 263 427 554 221 266 328 422 354 514 28 97 57 371 82 766 25 422 42 591 75 777 17 103 25 211 25 359 0 184-4 221-28 276-30 69-34 72-247 164-136 59-183 99-342 294-141 174-189 212-403 321a2629 2629 0 0 0-540 353 4922 4922 0 0 1-757 553c-320 192-634 536-917 1003-141 233-197 299-300 349-74 37-78 37-276 30-424-12-584-8-668 21-112 36-268 132-430 270-183 154-280 210-435 258-265 82-903 203-1055 200-50-1-165-12-257-25zm1821-2245c613-69 1060-273 1605-728 311-260 659-607 839-837 47-59 132-190 193-291 119-201 223-345 348-482 87-95 191-171 231-171 90 0 266 170 327 316 35 84 38 106 39 260 0 154-4 178-43 297-41 124-45 171-13 171 29 0 205-195 246-274 113-215 162-564 125-877-43-350-134-529-482-950-121-144-195-290-282-557-99-300-166-430-312-600-85-100-280-262-431-360-333-217-1102-546-1500-641-59-14-188-33-288-41-226-18-693-8-823 20-299 63-774 248-1263 491a4877 4877 0 0 0-967 595c-444 349-546 479-833 1058-263 533-290 618-301 931-17 541 90 838 431 1190 336 347 768 657 1534 1100 570 329 645 367 795 388 129 19 636 15 825-8z"/></svg>