<svg xmlns="http://www.w3.org/2000/svg" width="500" height="500" viewBox="0 0 375 375"><path fill="#fff" d="M0 0h375v375H0z"/><g fill="#373737"><path d="M83.14 177.41v11.22H41.92V137.3H82.2v11.22h-25.9v8.65h22.8v10.86H56.3v9.4zM86.93 134.21h13.94v54.42H86.93Zm0 0"/><path d="M177.28 148.88h13.94v39.75h-13.94zm6.97-4.4c-2.54 0-4.6-.71-6.17-2.13a6.83 6.83 0 0 1-2.35-5.28c0-2.1.79-3.86 2.35-5.28 1.57-1.42 3.63-2.13 6.17-2.13s4.6.68 6.16 2.02a6.52 6.52 0 0 1 2.34 5.17c0 2.2-.78 4.02-2.34 5.47-1.57 1.44-3.62 2.16-6.16 2.16zM238.53 148.88l-16.44 39.75h-14.37l-16.36-39.75h14.31l9.53 24.28 10.05-24.28zm0 0"/><path d="M238.51 148.88h13.94v39.75H238.5zm6.97-4.4c-2.54 0-4.6-.71-6.17-2.13a6.83 6.83 0 0 1-2.35-5.28c0-2.1.78-3.86 2.35-5.28 1.57-1.42 3.63-2.13 6.17-2.13s4.6.68 6.16 2.02a6.52 6.52 0 0 1 2.34 5.17c0 2.2-.78 4.02-2.34 5.47-1.57 1.44-3.62 2.16-6.16 2.16zM283.76 148.23c4.94 0 8.9 1.47 11.92 4.4 3 2.93 4.52 7.35 4.52 13.27v22.73h-13.94v-20.47c0-5.42-2.18-8.14-6.53-8.14-2.4 0-4.32.8-5.77 2.36-1.44 1.57-2.15 3.9-2.15 7.03v19.22h-13.94v-39.75h13.28v4.33a15.76 15.76 0 0 1 5.56-3.7c2.16-.85 4.5-1.28 7.05-1.28zM325.27 189.29c-4.25 0-8.1-.88-11.52-2.64a20 20 0 0 1-8.03-7.33 19.87 19.87 0 0 1-2.9-10.64c0-3.9.97-7.42 2.9-10.55a19.72 19.72 0 0 1 8-7.3c3.4-1.73 7.24-2.6 11.55-2.6 4.3 0 8.16.87 11.57 2.6a19.46 19.46 0 0 1 8 7.26c1.91 3.1 2.86 6.63 2.86 10.59s-.95 7.5-2.86 10.64a19.66 19.66 0 0 1-8 7.33 24.9 24.9 0 0 1-11.57 2.64zm0-11.08c2.44 0 4.45-.84 6.01-2.51 1.56-1.7 2.34-4.03 2.34-7.02 0-2.93-.78-5.22-2.34-6.9a7.9 7.9 0 0 0-6.01-2.5c-2.45 0-4.46.84-6.02 2.5-1.56 1.68-2.34 3.97-2.34 6.9 0 3 .78 5.33 2.34 7.02a7.84 7.84 0 0 0 6.02 2.51zm0 0"/><path d="M50.02 217.52c1 .47 1.8 1.09 2.36 1.84.57.75.86 1.63.86 2.61 0 1.97-.64 3.4-1.92 4.32a8.1 8.1 0 0 1-4.8 1.36h-6.4v-19.22h5.65c2.03 0 3.63.42 4.8 1.25a4.11 4.11 0 0 1 1.75 3.58c0 .96-.2 1.8-.61 2.53a4.6 4.6 0 0 1-1.7 1.73zm-6.11-1.23h2.3c.7 0 1.23-.21 1.6-.64.39-.43.58-.96.58-1.58 0-.65-.21-1.13-.65-1.47a2.8 2.8 0 0 0-1.8-.52h-2.03zm2.42 7.82c.9 0 1.62-.17 2.16-.53.55-.35.83-.89.83-1.6 0-1.36-1.08-2.04-3.24-2.04h-2.17v4.17zM77.9 208.43l-7.21 13.23v5.99H66.9v-5.99l-7.08-13.23h4.67l4.42 8.87 4.3-8.87zM104.55 223.6c0 1.64-.33 3.05-.99 4.23a6.83 6.83 0 0 1-2.76 2.77c-1.18.64-2.55 1-4.1 1.05v-3.7c2.69-.13 4.03-1.6 4.03-4.43v-15.1h3.82zM117.8 220.54c0 .61.18 1.2.55 1.76.36.56.84 1.01 1.45 1.36a4.2 4.2 0 0 0 5.5-1.36 3.2 3.2 0 0 0 .55-1.76v-12.11h3.73v12.18c0 1.4-.35 2.64-1.05 3.74a7.17 7.17 0 0 1-2.84 2.58c-1.19.61-2.5.92-3.92.92-1.43 0-2.74-.3-3.92-.92a7.07 7.07 0 0 1-3.83-6.32v-12.18h3.78zM148.55 223.88h-6.38l-1.56 3.77h-3.73l8.67-19.97h.2l8.67 19.97h-4.39zm-1.25-3.17-1.86-4.69-1.94 4.69zM179.43 208.43v20h-.1l-13.46-12.14.08 11.36h-3.83v-19.97h.16l13.42 12.31-.08-11.56zM217.08 226.05c-.49.4-1.26.81-2.32 1.2-1.07.4-2.22.6-3.47.6-2 0-3.74-.43-5.22-1.3a8.86 8.86 0 0 1-3.4-3.51 10.15 10.15 0 0 1-1.16-4.85c0-1.92.39-3.64 1.17-5.15a8.65 8.65 0 0 1 3.28-3.55 9.37 9.37 0 0 1 4.89-1.27 10.72 10.72 0 0 1 5.84 1.64l-1.48 3.58a6.97 6.97 0 0 0-4.23-1.56c-.97 0-1.89.27-2.74.81a5.77 5.77 0 0 0-2.05 2.2c-.5.94-.75 1.97-.75 3.1 0 1.23.24 2.31.7 3.25a5.2 5.2 0 0 0 2 2.17c.88.53 1.9.78 3.07.78.94 0 1.78-.15 2.53-.45.75-.3 1.34-.66 1.78-1.08zM235.28 223.88h-6.38l-1.56 3.77h-3.74l8.68-19.97h.2l8.67 19.97h-4.39zm-1.25-3.17-1.86-4.69-1.94 4.69zM268.63 207.65v20h-3.78v-9.18l-6.27 8.91h-.04l-6.03-8.33v8.6h-3.66v-20h.01l9.75 13.8 9.97-13.8zM304.13 218.07a9.94 9.94 0 0 1 4.88-8.5 9.45 9.45 0 0 1 4.9-1.35c1.76 0 3.4.45 4.9 1.35 1.5.9 2.7 2.1 3.6 3.62a9.41 9.41 0 0 1 1.35 4.88 9.4 9.4 0 0 1-1.34 4.9 9.99 9.99 0 0 1-8.5 4.88 9.74 9.74 0 0 1-9.78-9.78zm3.91 0a6.13 6.13 0 0 0 2.97 5.31 5.85 5.85 0 0 0 8.08-2.22c.5-.94.75-1.97.75-3.1 0-1.15-.26-2.2-.78-3.13a5.92 5.92 0 0 0-2.13-2.22 5.6 5.6 0 0 0-2.98-.83 5.86 5.86 0 0 0-5.13 3.05 6.33 6.33 0 0 0-.78 3.14zM348.42 208.43l-7.2 13.23v5.99h-3.79v-5.99l-7.07-13.23h4.67l4.42 8.87 4.3-8.87zm0 0"/></g><g fill="#7f0d4e"><path d="M167.74 119.15a18.9 18.9 0 0 0-3.5.34 18.48 18.48 0 0 0-6.45 2.68 18.61 18.61 0 0 0-3.9 3.53 18.61 18.61 0 0 0-2.7 4.51 17.68 17.68 0 0 0-1.37 6.86v26.87a8.96 8.96 0 0 1-7.62 8.86v17.99a26.44 26.44 0 0 0 7.5-1.47 26.97 26.97 0 0 0 13.79-10.87 28.25 28.25 0 0 0 2.33-4.53 27.98 27.98 0 0 0 1.44-4.9 27.5 27.5 0 0 0 .48-5.08zm-26.87 17.92a26.13 26.13 0 0 0-5.17.5 27.98 27.98 0 0 0-4.97 1.47 27.95 27.95 0 0 0-4.6 2.41 25.9 25.9 0 0 0-4.04 3.25 26.22 26.22 0 0 0-4.72 6.16 27.42 27.42 0 0 0-2.76 7.27 25.71 25.71 0 0 0-.63 5.14 26.12 26.12 0 0 0 .38 5.18 27 27 0 0 0 6.8 13.78 26.32 26.32 0 0 0 6.05 4.87 27.4 27.4 0 0 0 9.74 3.43c.85.13 1.71.21 2.58.26v-18a8.98 8.98 0 0 1-7.56-7.85 9.2 9.2 0 0 1 .83-4.89 8.86 8.86 0 0 1 3.3-3.7 8.75 8.75 0 0 1 4.77-1.37h6.28v-17.91z"/><path d="M287.91 206.52a8.43 8.43 0 0 0-5.74 2.63 8.69 8.69 0 0 0-2.19 4.26c-.1.53-.15 1.06-.15 1.6v14.19a5.54 5.54 0 0 0 3.15-.96 5.93 5.93 0 0 0 1.56-1.56 5.92 5.92 0 0 0 .85-2.05c.08-.36.11-.74.11-1.1v-8.51a2.85 2.85 0 0 1 1.46-2.49c.3-.16.62-.27.95-.32zm.85 0v5.69a2.8 2.8 0 0 1 2.28 1.97 2.8 2.8 0 0 1-.15 2.06 2.87 2.87 0 0 1-2.55 1.61h-2v5.67h2a8.56 8.56 0 0 0 8.3-6.66 8.75 8.75 0 0 0 .09-3.27 8.85 8.85 0 0 0-1.16-3.06 9.04 9.04 0 0 0-2.22-2.4 8.72 8.72 0 0 0-4.6-1.61z"/></g></svg>