<svg xmlns="http://www.w3.org/2000/svg" viewBox="0 0 10800 10800"><path fill="#fff" d="M-14 0h10800v10800H-14z"/><g><path d="M8379 1933c-72 3-167 45-265 119-212 160-448 476-629 843-31 63-72 122-135 195-61 71-90 113-90 130 0 22 6 19 56-35 30-33 53-53 50-45l-60 150c-72 178-75 192-41 226 25 25 30 26 119 22 80-3 102-8 160-37a870 870 0 0 0 335-361c64-123 95-251 75-304-9-24-70-20-129 8-63 30-116 68-221 163-46 40-84 71-84 68 0-12 182-430 226-517 74-148 150-256 248-354 122-123 229-174 362-174 68 0 102 13 114 45 15 39 30 29 30-19 0-66-15-95-57-113-18-8-40-11-64-10zm25 875c-32-2-83 6-111 21-90 45-388 411-335 411 4 0 30-30 59-67 56-74 194-213 231-232 18-10 22-9 22 3 0 7-45 105-99 216-55 110-107 230-117 266-16 62-16 65 2 85 16 18 27 20 73 16 91-10 173-58 282-166 53-53 119-127 147-165 29-38 52-65 52-61 0 5-23 71-50 146-161 442-351 753-553 905-263 197-557 191-626-15-6-19-11-61-11-93 0-43-3-58-12-55s-13 30-12 93c1 75 5 97 26 139 41 79 97 124 195 156 77 26 212 20 298-12 188-69 379-264 508-516 30-59 116-250 190-423 160-375 229-522 262-566 14-18 42-38 65-46 51-17 55-32 8-36-26-2-59 7-110 31-68 31-77 39-117 103l-118 182c-115 174-278 327-341 320-25-3-27-6-26-50 0-38 15-76 72-190 39-79 96-184 126-235 55-89 70-143 45-159-5-3-14-5-25-6zm-591 96 8 2c56 34-128 397-260 517-87 78-166 100-195 55-30-46 12-141 122-280 123-155 279-294 325-294zM3500 1933h-24c-51 5-125 27-180 55-150 79-261 222-462 598l-118 222-101 4c-80 4-112 10-155 30-172 78-382 387-414 605-9 59 18 87 72 77 85-15 171-72 300-198l83-81-37 79c-23 49-39 99-42 131-4 47-2 54 18 65 33 18 104 5 179-31 77-38 184-137 289-269 107-134 224-271 228-267 2 2-44 104-103 228-80 169-107 237-111 276-4 45-2 52 18 63 32 17 108 6 167-23 118-60 205-147 375-374 51-67 93-121 95-120a1567 1567 0 0 0-67 398c1 131 64 166 190 107 60-29 165-137 278-286 189-252 217-376 90-414-44-13-58-6-34 17 54 54-35 286-184 482-79 105-124 143-178 150-40 5-41 5-53-35-9-31-9-58-1-114 20-135 104-394 154-476 26-42 19-48-23-23-19 11-51 23-71 26-35 7-46 18-139 153a2503 2503 0 0 1-309 376c-72 66-111 88-148 84-63-7-23-114 177-482 56-102 101-191 101-196 0-7-9-5-22 4-12 9-53 23-92 31l-71 16-55 77c-97 137-285 365-356 433-91 86-145 121-181 117-54-6-39-69 80-318l149-315c167-353 309-602 400-701 67-72 120-99 200-99 74 0 112 19 136 68 22 44 32 31 32-41 0-75-11-95-61-107l-19-2zm1224 451c-4-1-8 0-12 1-48 12-82 44-82 77 0 61 57 87 110 51 33-23 40-33 40-65 0-34-27-64-56-64zm-1264 3c-69 0-118 84-74 128 23 22 78 14 110-16 44-42 21-112-36-112zm1156 379c-3-1-10 2-19 8-12 8-51 22-87 30-49 11-70 22-87 43a5730 5730 0 0 0-275 366c-7 34 16 13 105-94 122-147 146-175 147-167 0 4-43 98-96 210-110 232-124 268-124 314 0 44 27 58 92 51 117-14 263-128 407-318 74-97 213-260 218-256 3 3-148 384-212 537-30 71-30 74-7 65l59-18c40-10 44-15 69-77 82-206 222-397 375-510 63-47 99-62 99-41 0 6-45 103-100 218-132 277-152 359-97 398 142 101 428-277 452-320l-11-24c-31 36-65 70-98 105-102 109-168 156-211 152-29-3-30-5-29-49 0-36 16-78 75-200 42-85 97-188 122-229 47-75 60-131 35-146-24-15-96-5-145 20-71 35-188 132-279 229l-77 82 43-80c24-44 69-126 102-182 32-57 58-107 58-113 0-5-15-1-32 10-18 10-60 23-93 29-32 6-63 17-67 25l-109 147c-182 238-345 416-416 453-43 22-80 21-88-3-13-43 65-214 246-539 49-87 65-123 55-126zm-2019 83c25-1 45 6 53 21 26 48-39 165-187 340-144 169-247 253-276 223-55-54 165-451 300-545 35-24 77-38 110-39z"/><path fill="#800d50" d="M5901 3555a838 838 0 0 1-184-59c-19-9-17-7-49-41-14-15-23-22-56-45-24-18-38-30-44-39-5-9-9-21-13-46-6-37-8-42-29-98-9-23-10-28-12-79-2-39-2-43-6-54l-4-21c-4-26 0-69 8-89 14-37 47-75 172-199 84-83 127-123 144-135 33-24 128-69 165-79 25-7 65-11 113-11 40 0 45 1 53 7 4 4 4 4 4 15 1 13-1 18-10 23-8 4-21 3-55-6-44-11-62-13-87-9-61 10-142 43-190 80-21 16-55 50-94 97-37 44-55 64-96 106-38 39-49 53-60 75-13 26-16 51-10 93 4 27 4 55 0 85-3 26-3 52-1 65 3 11 11 26 20 39l59 62c66 67 65 65 84 95 10 16 28 33 41 40 22 12 37 15 104 25a3751 3751 0 0 1 108 17c58 10 105 8 135-4 22-10 80-62 80-72 0-2-30-2-58 1l-86 2-64 1-14-9c-34-21-58-34-76-41l-29-7c-28-6-32-8-63-35-21-18-31-26-49-37l-20-15c-24-21-45-66-55-115-6-32-7-40-7-78s1-48 7-72c4-15 9-23 26-42 29-33 38-44 47-64 17-37 19-39 35-48 14-7 44-27 77-51 42-29 61-41 89-55 25-13 43-20 68-25 14-3 19-3 51-4 65-1 96 4 136 23 15 7 31 16 76 44 31 19 51 30 100 57 39 22 48 29 66 55 13 19 18 26 41 54 22 25 32 40 34 49 3 9 6 36 8 74 3 40 4 57 8 74a201 201 0 0 1-1 61c-3 7-3 7-23 16-14 6-18 10-33 29a89 89 0 0 1-39 30c-21 11-36 21-52 34-30 26-46 37-73 54-31 18-61 51-88 96-13 22-19 29-29 34-7 3-7 3-26 2-41-1-56 0-65 2-10 4-25 13-41 26-18 15-27 21-42 25-25 8-87 20-101 19l-25-2zm175-216c59-6 102-26 155-70 29-25 63-58 80-80l19-28c11-20 21-33 33-47 9-9 19-16 22-16 9 0 26 16 32 30 3 8 3 10 4 25 0 15-1 17-5 29s-4 16-1 16 20-18 24-26c11-21 15-54 12-84-4-34-13-51-46-92-12-14-19-28-28-53-9-29-15-42-30-58-8-10-26-25-41-35-32-20-106-52-144-61-6-2-18-3-28-4-22-2-67-1-79 2a588 588 0 0 0-214 104c-43 34-53 46-81 102-25 51-27 59-29 89-1 52 9 81 42 115 32 33 74 63 147 106 55 31 62 35 77 37 12 2 61 1 79-1z"/></g><g><path d="M2482 6876c-18 0-36 2-51 6-20 5-41 20-57 38-21 23-24 33-20 56 8 51 29 63 130 71 94 9 121 19 132 50 11 26-7 60-38 77-38 21-108 16-169-12-44-20-47-21-56-8-6 8-10 17-10 20 0 12 69 37 120 45 83 12 149-2 181-38 27-33 32-65 15-101-21-41-58-57-153-64-64-4-81-8-94-21-24-24-14-55 21-70 39-16 88-13 141 9 56 23 53 23 65 4 10-15 7-18-34-37-36-16-82-25-123-25zm-2154 7v329h47v-149h153l49 75c40 61 53 74 68 74 11 0 20-2 20-5 0-2-18-31-39-65-42-64-46-79-28-79 7 0 23-10 36-22 51-45 34-132-29-150-17-4-86-8-153-8zm1035 0v329h163c157 0 163-1 163-16s-6-15-140-15h-139v-126h86c81 0 86-1 86-15 0-15-5-16-86-16h-86v-102h262v-39h-154zm1936 0v19c0 19 2 19 73 21l72 3 3 143 1 143h39v-290h71c70 0 71 0 71-20v-19h-165zm1905 0v125c0 177 11 198 103 212 49 7 124 2 163-11 15-5 35-19 43-31 15-20 17-34 19-159l3-136h-48v129c0 127-1 131-19 149-38 38-162 38-200 1-21-21-21-23-23-150l-3-129h-19zm1043 0v329h47v-149h155l48 75c43 67 50 74 72 74h23l-20-33-43-67c-28-40-29-46-5-52 10-2 28-14 39-25 27-28 30-85 6-115s-61-37-198-37zm1144 0c-9 0-39 52-96 164l-83 165h24c20 0 25-5 42-43l19-43h187l22 43c20 37 26 43 45 43h22l-85-165c-56-109-88-164-97-164zm850 0c-8 0-10 32-10 164v165h46l2-118 3-117 105 117c62 69 112 118 120 118 13 0 14-12 14-165v-164h-47l-2 121-2 122-109-122c-61-66-114-121-120-121zm930 0v19c0 20 0 20 75 20h74v290h40v-290h74c75 0 75 0 75-20v-19h-169zm988 0v329h165c159 0 165-1 165-16s-6-15-142-15h-141v-126h87c80 0 86-1 86-15 0-15-6-16-86-16h-87v-102h267v-39h-157zm-5781 1c-9 1-35 44-89 149l-83 166c-4 11 0 13 17 13 19 0 25-6 43-43l21-44 93 2 91 3 22 41c18 32 26 41 42 41 17 0 19-2 14-17a2425 2425 0 0 0-171-311zm1916 36 111 3c105 3 111 4 125 22 19 22 19 41 0 64-14 18-20 19-120 21-57 2-107 0-110-3-4-3-6-28-6-56zm-5919 2h94c63 0 103 4 121 11 44 19 47 65 4 87-16 9-49 12-121 12h-98v-55zm4004 30 37 68 36 71c0 2-32 3-71 3-51 0-70-2-70-9 0-5 15-38 34-71zm3013 1c4 0 70 130 70 137 0 3-31 4-70 4s-71-1-71-4c0-7 67-137 71-137z"/><path d="M7037 4571c-45 4-82 20-135 54-132 88-263 269-414 574l-80 163-188-1c-174-1-189 1-207 15-51 37-52 83-3 107 35 16 171 36 260 36h66l-5 23c-4 19-67 199-121 343-15 43-84 124-205 239a1963 1963 0 0 1-448 335c-135 69-208 81-244 42-22-24-38-64-38-97 0-43 45-163 92-248 27-46 121-194 210-328 108-164 160-249 160-263s-9-30-30-49c-35-31-64-40-102-29-27 8-40 5-40-9 0-4-10-30-23-57-34-71-65-87-169-86-93 1-151 14-254 60-86 38-187 102-288 183-94 77-300 288-366 376-48 63-129 210-151 275-18 48-218 163-341 195-65 17-184 25-191 13-3-4 10-50 27-101a5834 5834 0 0 0 95-288l53-177c28-102 108-311 142-370 18-32 64-92 103-135 39-41 73-85 78-95 20-56-2-104-54-119-46-14-62-12-111 14-46 25-55 31-408 298-445 335-441 333-685 544l-85 73c-23 20-24 8-20-105l4-116-57-55c-31-30-65-71-74-90l-20-38a822 822 0 0 1-188-92c-135-87-216-112-328-102-96 9-151 35-283 132-34 25-76 53-92 61-23 12-32 22-40 48-6 20-26 51-55 82-25 27-49 61-53 75-12 41-9 185 4 237 7 26 23 69 35 96 20 42 27 50 60 64 20 10 56 35 78 56 30 28 48 39 64 39 38 0 82 17 131 48 26 16 57 32 70 35 26 5 239-9 259-17 24-9 12 11-34 54-76 73-135 82-298 44-37-9-101-19-143-23-107-10-128-22-165-99-14-26-34-50-59-69-21-14-64-54-94-86-68-72-76-93-63-182 7-51 7-78 0-122-16-92 5-136 104-234 29-28 87-92 127-143a589 589 0 0 1 330-226c72-18 114-19 160-3 72 26 92 27 105 9 6-9 11-25 11-34 0-28-31-36-106-30a521 521 0 0 0-273 73l-103 53-200 199c-215 215-238 245-239 316-1 20-6 42-12 50-4 3-5 8-7 13-20 19-53 52-92 93-283 291-574 478-747 479-106 0-181-68-181-166 0-53 21-145 43-195 32-68 176-273 236-333 106-109 305-252 391-282 40-13 83-18 83-9 0 3-17 35-39 73-64 110-75 162-39 181 21 12 106 9 135-3 35-15 56-39 86-103 20-44 26-67 28-115 3-54 1-65-17-95-54-92-188-106-355-36-171 71-422 297-566 510-49 73-106 189-122 254-20 75-17 171 6 219 31 66 96 118 185 146 211 67 492-78 861-444 78-77 110-110 123-129 17-13 21 1 18 72-2 59 0 71 24 125 14 35 27 82 30 110 7 70 18 87 82 124 37 22 63 45 82 71 15 21 35 40 45 44 9 2 51 20 92 39s94 39 117 45c57 15 119 16 155 0 18-7 47-11 72-10 44 2 44 2 60-28 9-17 28-39 43-50 24-17 32-18 88-13 73 6 80 2 128-80 36-61 78-100 119-112 23-6 42-20 67-51 30-34 43-44 70-49 28-5 37-12 59-45 19-28 34-42 56-49l14-7c14-6 28-15 39-23 30-23 41-24 41-4 0 25 30 168 44 209 65 196 167 269 374 270 105 0 174-17 271-68 56-29 89-42 110-42 50 0 156-23 247-52 61-21 109-44 168-81l84-53 4 57c7 89 62 163 153 204 105 48 178 40 288-34 85-57 131-95 249-209l127-121 28-26-4 93c-5 123 6 169 59 221 73 73 154 92 252 61 186-61 380-190 572-379 57-57 106-104 107-104l-47 124a10755 10755 0 0 1-383 856c-266 521-489 804-687 874-128 45-261-37-287-179-7-35-18-44-33-24s-8 73 18 139c25 61 79 120 140 150 37 20 45 21 122 17 93-4 133-16 218-67 162-96 361-350 565-718 52-95 230-448 267-529l70-153c128-285 250-577 431-1038 7-19 19-37 25-41 6-3 88-19 180-35 327-56 461-87 468-109 2-6-98-7-291-5-174 2-294-1-294-5s3-10 7-14c3-5 33-59 65-121 87-167 104-199 136-245 145-206 297-263 402-151 22 22 39 34 46 32 6-2 15-5 19-5 13 0 31-48 32-88 1-54-15-84-67-123a289 289 0 0 0-211-70zm321 537c-28 0-57 4-78 14-77 37-62 148 27 192 61 30 137 14 181-38 42-51 21-113-52-151-20-11-49-16-78-17zm2419 247c-55-1-122 7-167 22-177 60-319 156-517 350-63 61-136 140-165 177-222 282-448 496-599 569-105 50-142 31-141-72 1-78 21-144 71-244 49-97 134-221 278-402 149-186 173-221 180-247 6-33-3-76-21-89-24-17-80-20-133-8-131 33-426 275-879 722a953 953 0 0 1-125 112c-14-13 80-214 165-354 39-64 178-272 203-303 32-40 39-94 14-120a94 94 0 0 0-96-19c-22 8-146 153-355 411a5707 5707 0 0 1-468 525c-113 110-150 139-204 165-39 18-46 18-73 10-42-14-61-43-65-100-7-92 66-244 217-448 70-94 220-282 261-327 20-24 38-49 38-56 0-34-86-75-137-67-86 12-132 69-330 398-90 150-142 257-160 330-39 154 0 293 90 325 34 11 105 11 149-3 51-15 151-82 248-165 80-70 242-243 336-360 79-100 87-107 91-104 2 3-1 15-7 27-44 83-118 273-134 344-24 97-26 128-8 165 16 34 61 74 84 74 24 0 76-56 206-220 174-221 305-371 433-501 109-107 304-279 341-299 18-11 17 3-2 30-9 12-30 47-49 76l-123 204c-128 212-178 340-187 480-7 116 18 180 84 214 36 19 102 22 146 8 81-26 204-118 366-275l115-109-12 47c-16 62-15 160 4 201 32 72 140 147 224 156 54 6 104-10 182-61 83-54 119-85 264-223 69-66 128-120 132-120s5 6 2 14c-3 7-7 44-10 81-6 96 15 163 65 210 122 113 264 80 472-110 157-144 418-463 418-514 0-35-15-26-72 42a3618 3618 0 0 1-462 486c-62 47-141 88-181 93-30 4-38 3-59-15-34-29-45-59-40-117 8-94 79-231 269-511 134-200 176-268 176-285 0-20-52-72-73-74l-55-1-38-1-19-46c-24-58-35-72-78-88-18-7-47-10-80-10zm-5843 46c7 0 9 7 6 22-29 136-88 379-103 429-114 371-193 532-281 578-36 18-131 25-185 14a333 333 0 0 1-213-186c-24-64-25-166-1-216 37-77 213-239 472-435 130-97 290-206 305-206zm1506 62c22 1 42 6 60 14 49 24 49 38-6 113l-141 195c-259 358-306 417-443 554a993 993 0 0 1-262 194c-78 31-152 27-179-9-30-40-31-148-4-230 36-106 121-227 261-371 288-296 557-467 714-460zm4389 16c22 0 42 4 60 11 40 18 48 39 25 70l-198 272c-218 300-259 351-393 484a902 902 0 0 1-267 201c-84 30-146 20-172-28-18-34-18-135 0-198 29-98 119-228 255-368 277-284 534-448 690-444zm-7515 139c82-3 164 18 250 63 81 42 132 106 132 168 0 8 18 34 40 58 21 25 44 57 51 71 16 39 14 123-5 160s-37 51-28 23c15-54 14-74-7-100-12-14-28-25-36-25-19 0-66 54-87 98a702 702 0 0 1-190 183c-24 15-69 33-101 41-79 21-151 20-195-3a833 833 0 0 1-237-161c-80-80-96-111-89-181 8-93 73-193 171-263a607 607 0 0 1 331-132z"/><path fill="#800d50" d="M1970 6623c-23-6-74-26-114-44-40-19-80-36-89-38-9-3-29-22-43-43-19-25-44-47-80-68-62-36-73-53-79-121-3-27-16-73-30-106-23-53-25-65-23-122 3-69-1-83-17-70-19 16-30-35-12-56 6-8 11-29 12-49 1-68 23-97 232-305l194-194 99-51c104-54 123-59 266-71 72-6 102 2 102 29 0 9-5 24-11 33-12 18-32 16-102-9-44-15-85-14-154 3a572 572 0 0 0-321 219c-39 50-95 112-123 139-96 95-116 137-101 227 7 43 7 69 0 118-12 87-5 107 61 177 30 31 71 69 91 84 25 18 44 41 57 67 37 74 57 86 161 96 40 3 102 13 138 22 158 36 216 28 290-43 44-42 56-61 33-52-20 7-226 21-251 16-13-3-44-18-69-34-47-30-90-46-127-46-15 0-32-11-61-38-22-21-57-45-76-54-32-14-39-22-59-63-11-26-27-67-33-92-13-51-16-191-4-231 4-14 26-46 51-73 28-30 48-59 54-79 7-25 16-35 38-46 16-9 56-35 89-60 128-94 181-119 275-128 109-9 187 15 318 99a798 798 0 0 0 182 89l19 37c10 19 42 58 73 87l55 54-4 112c-4 110-1 123 19 103 7-7 10-3 10 18 0 48-14 73-46 84-21 7-37 20-55 48-21 32-30 38-57 44-26 4-39 14-68 47-25 30-43 44-65 49-39 12-81 50-116 109-46 79-53 84-124 78-54-5-61-4-85 13-14 10-33 31-42 48-15 29-15 29-57 27-25-1-54 3-70 10-35 15-95 14-151 0zm341-307c30-7 74-26 97-39 63-38 166-137 185-178 20-43 66-95 84-95 8 0 23 10 35 24 21 25 22 44 7 97-9 27 9 13 27-22 18-36 20-118 4-156-6-13-28-44-49-68s-39-49-39-56c0-60-48-123-128-164-190-99-360-79-563 67a377 377 0 0 0-166 256c-7 67 8 98 87 175 64 63 101 88 229 156 43 22 113 24 190 3z"/></g></svg>