<svg xmlns="http://www.w3.org/2000/svg" width="1024" height="1024" viewBox="0 0 1024 1024"><path fill="#7f0d4e" d="M896.3 0a270.2 270.2 0 0 0-50 4.9 264.2 264.2 0 0 0-70.7 25.4 252.9 252.9 0 0 0-92.3 83.5 246.8 246.8 0 0 0-23.6 44.3 252.7 252.7 0 0 0-18.3 72.9c-.8 8.4-1.2 16.8-1.2 25.1v384.2a128 128 0 0 1-109 126.6V1024a378 378 0 0 0 72.2-10.6 391.8 391.8 0 0 0 101.3-40.7 376.8 376.8 0 0 0 85.7-67.6 386.3 386.3 0 0 0 78.4-122.2 400 400 0 0 0 20.6-70 393.1 393.1 0 0 0 6.9-72.6zM512 256.1a373.6 373.6 0 0 0-73.8 7.1 400 400 0 0 0-71 21.2 399.6 399.6 0 0 0-65.7 34.4 370.1 370.1 0 0 0-57.9 46.4 374.8 374.8 0 0 0-67.4 88.1 392 392 0 0 0-39.5 103.8 367.6 367.6 0 0 0-9 73.6 372.5 372.5 0 0 0 5.4 74 385.9 385.9 0 0 0 73.3 168.6 386.6 386.6 0 0 0 110.4 98 391.5 391.5 0 0 0 102.7 42A384.7 384.7 0 0 0 493 1024V766.9a128.3 128.3 0 0 1-94-66.8 127 127 0 0 1-14.5-69.4 129.5 129.5 0 0 1 40.6-84.2 125.6 125.6 0 0 1 63.2-32c7.8-1.5 15.8-2.2 23.8-2.2H602V256Z"/></svg>