<svg xmlns="http://www.w3.org/2000/svg" width="1024" height="374" viewBox="0 0 1024 374"><g fill="var(--text,#373737)"><path d="M142.9 193.7V231H5.9V60.4h133.8v37.3h-86v28.7h75.7v36.1H53.7v31.2zM155.5 50.2h46.3V231h-46.3zm0 0"/><path d="M455.6 99h46.3v132h-46.3zm23.1-14.7c-8.4 0-15.3-2.4-20.5-7a22.7 22.7 0 0 1-7.8-17.6c0-7 2.6-12.8 7.8-17.5 5.2-4.7 12-7.1 20.5-7.1 8.4 0 15.3 2.2 20.5 6.7a21.6 21.6 0 0 1 7.7 17.2c0 7.3-2.6 13.3-7.7 18.1a29 29 0 0 1-20.5 7.2zM659 99l-54.6 132h-47.7L502.3 99H550l31.6 80.6L615 98.9zM659 99h46.2v132H659Zm23-14.7c-8.4 0-15.2-2.4-20.4-7a22.7 22.7 0 0 1-7.8-17.6c0-7 2.6-12.8 7.8-17.5 5.2-4.7 12-7.1 20.5-7.1 8.4 0 15.2 2.2 20.4 6.7a21.6 21.6 0 0 1 7.8 17.2c0 7.3-2.6 13.3-7.8 18.1a29 29 0 0 1-20.4 7.2zM809.2 96.8c16.4 0 29.6 4.8 39.6 14.6 10 9.7 15 24.4 15 44V231h-46.3v-68c0-18-7.2-27-21.7-27-8 0-14.3 2.6-19.1 7.8-4.8 5.2-7.2 13-7.2 23.3V231h-46.3V99h44.1v14.3a52.3 52.3 0 0 1 18.5-12.3c7.2-2.8 15-4.2 23.4-4.2zM947 233.1c-14 0-26.8-2.9-38.2-8.7a66.4 66.4 0 0 1-26.6-24.4 66 66 0 0 1-9.6-35.3 65.3 65.3 0 0 1 36.1-59.3 83 83 0 0 1 38.4-8.6c14.3 0 27.1 2.8 38.5 8.6a64.6 64.6 0 0 1 36 59.3 65.3 65.3 0 0 1-36 59.7A82.7 82.7 0 0 1 947 233zm0-36.8a26 26 0 0 0 20-8.3 33 33 0 0 0 7.9-23.3c0-9.7-2.6-17.4-7.8-22.9a26.2 26.2 0 0 0-20-8.3c-8.1 0-14.8 2.8-20 8.3a32.2 32.2 0 0 0-7.8 22.9 33 33 0 0 0 7.8 23.3 26 26 0 0 0 20 8.3zm0 0"/><path d="M32.9 327a20 20 0 0 1 7.8 6 14 14 0 0 1 2.8 8.7c0 6.5-2 11.3-6.3 14.3a27 27 0 0 1-16 4.5H0v-63.8h18.7a27 27 0 0 1 16 4.2c3.8 2.7 5.8 6.7 5.8 11.8 0 3.2-.7 6-2 8.5a15.3 15.3 0 0 1-5.6 5.7zm-20.3-4.2h7.6c2.3 0 4-.7 5.3-2.1 1.3-1.4 2-3.2 2-5.3 0-2.1-.8-3.7-2.2-4.8a9.3 9.3 0 0 0-6-1.7h-6.7zm8 26c3 0 5.4-.6 7.2-1.7a6 6 0 0 0 2.7-5.4c0-4.5-3.6-6.7-10.7-6.7h-7.2v13.8zM125.4 296.7l-23.9 44v19.8H88.9v-19.8l-23.5-44H81l14.6 29.5 14.3-29.5zM214 347.1c0 5.4-1.1 10.1-3.3 14-2.2 4-5.2 7.1-9.2 9.3-4 2.1-8.4 3.3-13.6 3.4v-12.2c9-.5 13.4-5.4 13.4-14.8v-50H214zM258 337c0 2 .6 4 1.8 5.8 1.2 1.8 2.8 3.3 4.8 4.5 2 1.2 4.2 1.7 6.6 1.7a14 14 0 0 0 11.7-6.2c1.2-1.9 1.8-3.8 1.8-5.9v-40.2h12.4v40.5c0 4.6-1.1 8.7-3.5 12.4a23.8 23.8 0 0 1-9.4 8.6c-4 2-8.3 3-13 3-4.8 0-9.1-1-13-3a23.5 23.5 0 0 1-12.8-21v-40.5H258zM360.1 348H339l-5.1 12.5h-12.5l28.9-66.3h.6l28.8 66.3H365zm-4.1-10.5-6.2-15.6-6.4 15.6zM462.7 296.7v66.4h-.4l-44.6-40.3.2 37.7h-12.7v-66.3h.5l44.6 41-.3-38.5zM587.8 355.3a32.8 32.8 0 0 1-19.3 6c-6.6 0-12.4-1.5-17.3-4.4-5-2.9-8.7-6.8-11.3-11.7a36.8 36.8 0 0 1 0-33.2 28.7 28.7 0 0 1 27.2-16 35.6 35.6 0 0 1 19.4 5.5l-5 11.9a23.1 23.1 0 0 0-14-5.2c-3.2 0-6.3.9-9.1 2.7a19.2 19.2 0 0 0-6.8 7.3c-1.7 3-2.5 6.5-2.5 10.3 0 4 .8 7.7 2.3 10.8 1.6 3 3.8 5.5 6.7 7.2 2.9 1.7 6.3 2.6 10.2 2.6 3 0 5.9-.5 8.4-1.5s4.4-2.2 5.9-3.6zM648.2 348H627l-5.2 12.5h-12.4l28.8-66.3h.7l28.8 66.3h-14.6zm-4.2-10.5-6.1-15.6-6.5 15.6zM759 294.1v66.4h-12.6v-30.4l-20.8 29.6h-.1l-20-27.7v28.5h-12.2v-66.4l32.4 45.9 33.1-45.9zM877 328.7a33 33 0 0 1 32.5-32.7c5.7 0 11.2 1.5 16.1 4.5a33.8 33.8 0 0 1 16.5 28.2 33.2 33.2 0 0 1-32.7 32.5 32.3 32.3 0 0 1-32.5-32.5zm12.9 0a20.4 20.4 0 0 0 9.8 17.7 19.4 19.4 0 0 0 26.9-7.4c1.6-3.1 2.5-6.5 2.5-10.3 0-3.8-.9-7.3-2.6-10.4a19.7 19.7 0 0 0-17-10.1 19.5 19.5 0 0 0-17 10.1 21 21 0 0 0-2.6 10.4zM1024 296.7l-24 44v19.8h-12.5v-19.8l-23.5-44h15.5l14.7 29.5 14.3-29.5zm0 0"/></g><g fill="#7f0d4e"><path d="M423.9.2A62.8 62.8 0 0 0 401 4.7a59.5 59.5 0 0 0-36.7 55v89.2a29.8 29.8 0 0 1-25.4 29.5V238a87.8 87.8 0 0 0 47.5-16.5 89.8 89.8 0 0 0 37.4-72.7zm-89.3 59.5a86.8 86.8 0 0 0-41.5 10.2 89.1 89.1 0 0 0 3.8 160 88.7 88.7 0 0 0 33.3 8.2v-59.7a29.8 29.8 0 0 1 4.4-59.2h20.9V59.7Z"/><path d="M823 290.4a28 28 0 0 0-22.4 13 28.2 28.2 0 0 0-4.4 15.2v47a18.4 18.4 0 0 0 10.4-3 19.7 19.7 0 0 0 5.2-5.3 19.7 19.7 0 0 0 2.9-6.8l.3-3.6v-28.3a9.5 9.5 0 0 1 4.9-8.3c1-.5 2-.9 3.1-1zm2.8 0v18.9a9.3 9.3 0 0 1 7.6 6.5 9.3 9.3 0 0 1-.5 6.9 9.5 9.5 0 0 1-8.5 5.3h-6.6V347h6.6a28.4 28.4 0 0 0 28-33 29.4 29.4 0 0 0-7.2-14.5 28.5 28.5 0 0 0-19.4-9z"/></g></svg>